<svg width="25" height="25" viewBox="0 0 25 25" fill="none" xmlns="http://www.w3.org/2000/svg">
<path d="M13.2944 19.6903C14.9608 19.6903 16.5897 19.2664 17.9752 18.4723C19.3607 17.6781 20.4405 16.5494 21.0782 15.2288C21.7159 13.9081 21.8827 12.455 21.5576 11.053C21.2325 9.65104 20.4301 8.36325 19.2519 7.35249C18.0736 6.34173 16.5724 5.6534 14.9381 5.37453C13.3038 5.09566 11.6098 5.23879 10.0703 5.78581C8.53083 6.33283 7.21502 7.25917 6.28926 8.4477C5.3635 9.63622 4.86938 11.0336 4.86938 12.463C4.86938 13.4749 5.11105 14.4378 5.54893 15.3118C5.69777 15.6089 5.72177 15.9578 5.58207 16.2593L4.59368 18.3924C4.24166 19.1522 4.9234 19.9822 5.73707 19.7846L9.10024 18.9676C9.31476 18.9155 9.53977 18.9376 9.74476 19.0195C10.8235 19.4505 12.0267 19.6903 13.2944 19.6903Z" stroke="black" stroke-width="1.5" stroke-linecap="round" stroke-linejoin="round"/>
</svg>
