<svg width="41" height="41" viewBox="0 0 41 41" fill="none" xmlns="http://www.w3.org/2000/svg">
<circle cx="20.5" cy="20.5" r="20.5" fill="#787878"/>
<g clip-path="url(#clip0_629_111)">
<path d="M27.3 13.71C26.91 13.32 26.28 13.32 25.89 13.71L21 18.59L16.11 13.7C15.72 13.31 15.09 13.31 14.7 13.7C14.31 14.09 14.31 14.72 14.7 15.11L19.59 20L14.7 24.89C14.31 25.28 14.31 25.91 14.7 26.3C15.09 26.69 15.72 26.69 16.11 26.3L21 21.41L25.89 26.3C26.28 26.69 26.91 26.69 27.3 26.3C27.69 25.91 27.69 25.28 27.3 24.89L22.41 20L27.3 15.11C27.68 14.73 27.68 14.09 27.3 13.71V13.71Z" fill="#BCBCBC"/>
</g>
<defs>
<clipPath id="clip0_629_111">
<rect width="24" height="24" fill="white" transform="translate(9 8)"/>
</clipPath>
</defs>
</svg>
