<svg width="16" height="17" viewBox="0 0 16 17" fill="none" xmlns="http://www.w3.org/2000/svg">
<path fill-rule="evenodd" clip-rule="evenodd" d="M3.5 16H12.5C13.8808 16 15 14.8807 15 13.5V12H16V13.5C16 15.433 14.433 17 12.5 17H3.5C1.567 17 0 15.433 0 13.5V12H1V13.5C1 14.8807 2.11929 16 3.5 16Z" fill="white"/>
<path d="M8.35355 0.646447C8.15829 0.451184 7.84171 0.451184 7.64645 0.646447L4.46447 3.82843C4.2692 4.02369 4.2692 4.34027 4.46447 4.53553C4.65973 4.7308 4.97631 4.7308 5.17157 4.53553L8 1.70711L10.8284 4.53553C11.0237 4.7308 11.3403 4.7308 11.5355 4.53553C11.7308 4.34027 11.7308 4.02369 11.5355 3.82843L8.35355 0.646447ZM8.5 11L8.5 1H7.5L7.5 11H8.5Z" fill="white"/>
</svg>
