<svg width="39" height="39" viewBox="0 0 39 39" fill="none" xmlns="http://www.w3.org/2000/svg">
<circle cx="19.5" cy="19.5" r="19.5" fill="#00C596"/>
<path fill-rule="evenodd" clip-rule="evenodd" d="M15.5 26H24.5C25.8808 26 27 24.8807 27 23.5V22H28V23.5C28 25.433 26.433 27 24.5 27H15.5C13.567 27 12 25.433 12 23.5V22H13V23.5C13 24.8807 14.1193 26 15.5 26Z" fill="white"/>
<path d="M20.3536 10.6464C20.1583 10.4512 19.8417 10.4512 19.6464 10.6464L16.4645 13.8284C16.2692 14.0237 16.2692 14.3403 16.4645 14.5355C16.6597 14.7308 16.9763 14.7308 17.1716 14.5355L20 11.7071L22.8284 14.5355C23.0237 14.7308 23.3403 14.7308 23.5355 14.5355C23.7308 14.3403 23.7308 14.0237 23.5355 13.8284L20.3536 10.6464ZM20.5 21L20.5 11H19.5L19.5 21H20.5Z" fill="white"/>
</svg>
